<svg width="33" height="33" viewBox="0 0 33 33" fill="none" xmlns="http://www.w3.org/2000/svg">
  <mask id="mask0_436_29174" style="mask-type:alpha" maskUnits="userSpaceOnUse" x="0" y="2" width="33" height="29">
    <path fill-rule="evenodd" clip-rule="evenodd" d="M4.5 2.88257C2.29086 2.88257 0.5 4.67343 0.5 6.88257V10.8826H32.5V6.88257C32.5 4.67343 30.7091 2.88257 28.5 2.88257H4.5ZM6.5 6.88257C5.94772 6.88257 5.5 7.33028 5.5 7.88257C5.5 8.43485 5.94772 8.88257 6.5 8.88257H12.5C13.0523 8.88257 13.5 8.43485 13.5 7.88257C13.5 7.33028 13.0523 6.88257 12.5 6.88257H6.5ZM22.4991 8.88257C23.0509 8.88257 23.4982 8.43487 23.4982 7.88257C23.4982 7.33028 23.0509 6.88257 22.4991 6.88257C21.9473 6.88257 21.5 7.33028 21.5 7.88257C21.5 8.43487 21.9473 8.88257 22.4991 8.88257ZM26.4991 8.88257C27.0509 8.88257 27.4982 8.43487 27.4982 7.88257C27.4982 7.33028 27.0509 6.88257 26.4991 6.88257C25.9473 6.88257 25.5 7.33028 25.5 7.88257C25.5 8.43487 25.9473 8.88257 26.4991 8.88257Z" fill="#000001"/>
    <path d="M32.5 12.8826H0.5V26.8826C0.5 29.0917 2.29086 30.8826 4.5 30.8826H28.5C30.7091 30.8826 32.5 29.0917 32.5 26.8826V12.8826Z" fill="#000001"/>
  </mask>
  <g mask="url(#mask0_436_29174)">
    <rect width="32" height="32" transform="translate(.5 .88)" fill="#0B5CFF"/>
  </g>
</svg>
