<svg width="33" height="33" viewBox="0 0 33 33" fill="none" xmlns="http://www.w3.org/2000/svg">
<path d="M32.5 16.8826C32.5 18.5935 32.3624 20.2713 32.0997 21.9071C31.2299 27.3227 26.9401 31.6125 21.5245 32.4823C19.8886 32.745 18.2109 32.8826 16.5 32.8826C14.7891 32.8826 13.1114 32.745 11.4755 32.4823C6.05993 31.6125 1.77012 27.3227 0.900312 21.9071C0.637561 20.2713 0.5 18.5935 0.5 16.8826C0.5 15.1716 0.637561 13.4939 0.900312 11.858C1.77012 6.44244 6.05993 2.15268 11.4755 1.28288C13.1114 1.02013 14.7891 0.882568 16.5 0.882568C18.2109 0.882568 19.8886 1.02013 21.5245 1.28288C26.9401 2.15268 31.2299 6.44244 32.0997 11.858C32.3624 13.4938 32.5 15.1716 32.5 16.8826Z" fill="#0B5CFF"/>
<path d="M32.5 16.8826C32.5 18.5935 32.3624 20.2713 32.0997 21.9071C31.2299 27.3227 26.9401 31.6125 21.5245 32.4823C19.8886 32.745 18.2109 32.8826 16.5 32.8826C14.7891 32.8826 13.1114 32.745 11.4755 32.4823C6.05993 31.6125 1.77012 27.3227 0.900312 21.9071C0.637561 20.2713 0.5 18.5935 0.5 16.8826C0.5 15.1716 0.637561 13.4939 0.900312 11.858C1.77012 6.44244 6.05993 2.15268 11.4755 1.28288C13.1114 1.02013 14.7891 0.882568 16.5 0.882568C18.2109 0.882568 19.8886 1.02013 21.5245 1.28288C26.9401 2.15268 31.2299 6.44244 32.0997 11.858C32.3624 13.4938 32.5 15.1716 32.5 16.8826Z" fill="url(#paint0_radial_436_29223)"/>
<path d="M32.4999 16.8826C32.4999 18.5935 32.3623 20.2713 32.0996 21.9071C31.2297 27.3227 26.94 31.6125 21.5244 32.4822C19.8885 32.745 18.2108 32.8825 16.4999 32.8825C14.7891 32.8825 13.1113 32.745 11.4754 32.4822C6.05981 31.6125 1.77006 27.3227 0.900255 21.9071C0.637504 20.2712 0.5 18.5935 0.5 16.8826C0.5 15.1717 0.637504 13.4938 0.900255 11.8579C1.77012 6.44244 6.05987 2.15257 11.4754 1.28282C13.1114 1.02007 14.789 0.882568 16.4999 0.882568C18.2109 0.882568 19.8886 1.02007 21.5244 1.28282C26.94 2.15257 31.2298 6.44244 32.0996 11.8579C32.3623 13.4938 32.4999 15.1715 32.4999 16.8826Z" fill="url(#paint1_radial_436_29223)"/>
<g clip-path="url(#clip0_436_29223)">
<path d="M23.9419 20.6879L24.9564 24.7443C25.0334 25.0501 24.8471 25.3604 24.5407 25.4374C24.4944 25.4486 24.4475 25.4541 24.4018 25.4541C24.1456 25.4541 23.9129 25.2811 23.8482 25.0211L22.8131 20.8826H20.5C19.87 20.8826 19.3572 21.3949 19.3572 22.0255V24.8827C19.3572 25.1986 19.1016 25.4542 18.7857 25.4542C18.4699 25.4542 18.2143 25.1986 18.2143 24.8827V22.0255C18.2143 20.7655 19.2394 19.7398 20.5 19.7398H23.2589C23.3906 19.7398 23.5045 19.6516 23.5363 19.5244L24.5173 15.6013C24.5932 15.2944 24.9045 15.1091 25.2098 15.185C25.5161 15.262 25.7025 15.5723 25.6255 15.8781L24.6445 19.8012C24.5459 20.1965 24.2794 20.5012 23.9419 20.6879ZM14.7858 22.0255V24.8827C14.7858 25.1986 14.5302 25.4541 14.2143 25.4541C13.8985 25.4541 13.6429 25.1986 13.6429 24.8827V22.0255C13.6429 21.3949 13.1301 20.8826 12.5 20.8826H10.1869L9.15187 25.0211C9.08713 25.2811 8.85444 25.4541 8.5983 25.4541C8.55254 25.4541 8.50567 25.4486 8.45935 25.4374C8.153 25.3604 7.96661 25.0501 8.04361 24.7443L9.05819 20.6879C8.72064 20.5009 8.45419 20.1965 8.35556 19.8011L7.37454 15.8781C7.29753 15.5723 7.48391 15.262 7.79028 15.185C8.09496 15.1102 8.40635 15.2944 8.48279 15.6013L9.46381 19.5243C9.49562 19.6516 9.60945 19.7397 9.74115 19.7397H12.5001C13.7607 19.7397 14.7858 20.7655 14.7858 22.0255ZM21.0715 8.31128H11.9286C10.6686 8.31128 9.64288 9.33695 9.64288 10.597V15.1684C9.64288 16.4285 10.6686 17.4541 11.9286 17.4541H21.0715C22.3315 17.4541 23.3572 16.4285 23.3572 15.1684V10.597C23.3572 9.33695 22.3315 8.31128 21.0715 8.31128ZM16.4998 9.74013C17.3678 9.74013 18.0706 10.4437 18.0706 11.3114C18.0706 12.1794 17.3678 12.883 16.4998 12.883C15.6319 12.883 14.9278 12.1794 14.9278 11.3114C14.9278 10.4437 15.6319 9.74013 16.4998 9.74013ZM18.541 16.0258H14.4587C14.0645 16.0258 13.6426 15.674 13.6426 15.2401C13.6426 14.3723 14.8667 13.6687 16.4998 13.6687C18.133 13.6687 19.357 14.3723 19.357 15.2401C19.357 15.674 18.9353 16.0258 18.541 16.0258Z" fill="white"/>
</g>
<defs>
<radialGradient id="paint0_radial_436_29223" cx="0" cy="0" r="1" gradientUnits="userSpaceOnUse" gradientTransform="translate(16.5 15.0232) scale(21.5722 18.0296)">
<stop offset="0.82" stop-color="#0B5CFF" stop-opacity="0"/>
<stop offset="0.98" stop-color="#003CB3"/>
</radialGradient>
<radialGradient id="paint1_radial_436_29223" cx="0" cy="0" r="1" gradientUnits="userSpaceOnUse" gradientTransform="translate(16.4999 18.7352) scale(21.5645 18.0231)">
<stop offset="0.8" stop-color="#0B5CFF" stop-opacity="0"/>
<stop offset="1" stop-color="#71A5F1"/>
</radialGradient>
<clipPath id="clip0_436_29223">
<rect width="20.5714" height="20.5714" fill="white" transform="translate(6.21436 6.59692)"/>
</clipPath>
</defs>
</svg>
