<svg width="16" height="16" viewBox="0 0 16 16" fill="none" xmlns="http://www.w3.org/2000/svg">
<path d="M16.0005 8.31394C16.0013 8.18883 15.9367 8.07239 15.83 8.00697H15.8282L15.8215 8.00325L10.2773 4.72139C10.2533 4.70522 10.2285 4.69043 10.2029 4.67711C9.9888 4.56667 9.73452 4.56667 9.52045 4.67711C9.49481 4.69044 9.46997 4.70522 9.44602 4.72139L3.90186 8.00325L3.89517 8.00697C3.72572 8.11234 3.67377 8.33513 3.77914 8.50458C3.81019 8.55451 3.85295 8.5961 3.90372 8.62576L9.4479 11.9076C9.47192 11.9236 9.49677 11.9384 9.52232 11.9519C9.73639 12.0623 9.99067 12.0623 10.2047 11.9519C10.2303 11.9384 10.2551 11.9237 10.2792 11.9076L15.8233 8.62576C15.9341 8.56118 16.0017 8.44216 16.0005 8.31394Z" fill="#0A2767"/>
<path d="M4.54763 6.12269H8.18595V9.45775H4.54763V6.12269ZM15.2557 2.73255V1.20697C15.2645 0.825542 14.9625 0.50914 14.5811 0.5H5.13964C4.75821 0.50914 4.45629 0.825542 4.46503 1.20697V2.73255L10.0464 4.22092L15.2557 2.73255Z" fill="#0364B8"/>
<path d="M4.46484 2.73255H8.18578V6.08138H4.46484V2.73255Z" fill="#0078D4"/>
<path d="M11.9065 2.73255H8.18555V6.08138L11.9065 9.43021H15.2553V6.08138L11.9065 2.73255Z" fill="#28A8EA"/>
<path d="M8.18555 6.08138H11.9065V9.43021H8.18555V6.08138Z" fill="#0078D4"/>
<path d="M8.18555 9.43021H11.9065V12.779H8.18555V9.43021Z" fill="#0364B8"/>
<path d="M4.54688 9.45775H8.18521V12.4896H4.54688V9.45775Z" fill="#14447D"/>
<path d="M11.9062 9.43021H15.2551V12.779H11.9062V9.43021Z" fill="#0078D4"/>
<path d="M15.8293 8.60528L15.8223 8.60901L10.2781 11.7271C10.2539 11.742 10.2293 11.7562 10.2037 11.7688C10.1095 11.8136 10.0072 11.839 9.90302 11.8432L9.60013 11.6661C9.57454 11.6533 9.54969 11.639 9.52571 11.6233L3.90712 8.41663H3.90452L3.7207 8.31393V14.6261C3.72357 15.0472 4.06719 15.3864 4.48833 15.3837H15.244C15.2504 15.3837 15.2559 15.3807 15.2626 15.3807C15.3516 15.375 15.4393 15.3567 15.5231 15.3264C15.5593 15.311 15.5943 15.2929 15.6277 15.2721C15.6526 15.2579 15.6954 15.227 15.6954 15.227C15.886 15.086 15.9988 14.8632 15.9997 14.6261V8.31393C15.9996 8.43467 15.9345 8.54599 15.8293 8.60528Z" fill="url(#paint0_linear_14033_1489)"/>
<path opacity="0.5" d="M15.7031 8.28901V8.67599L9.90588 12.6674L3.90403 8.41924C3.90403 8.41719 3.90236 8.41552 3.9003 8.41552L3.34961 8.08436V7.80528L3.57659 7.80156L4.05658 8.07691L4.06774 8.08063L4.10867 8.10668C4.10867 8.10668 9.74959 11.3253 9.76448 11.3327L9.98029 11.4592C9.99889 11.4518 10.0175 11.4443 10.0398 11.4369C10.051 11.4295 15.6398 8.28528 15.6398 8.28528L15.7031 8.28901Z" fill="#0A2767"/>
<path d="M15.8293 8.60528L15.8223 8.60937L10.2781 11.7275C10.2539 11.7424 10.2293 11.7565 10.2037 11.7692C9.98834 11.8744 9.73655 11.8744 9.52124 11.7692C9.49574 11.7565 9.47091 11.7426 9.44682 11.7275L3.90265 8.60937L3.89596 8.60528C3.78892 8.54725 3.72181 8.43569 3.7207 8.31393V14.6261C3.72337 15.0472 4.06687 15.3864 4.48792 15.3837C4.48793 15.3837 4.48794 15.3837 4.48796 15.3837H15.2325C15.6536 15.3864 15.9971 15.0472 15.9998 14.6261C15.9998 14.6261 15.9998 14.6261 15.9998 14.6261V8.31393C15.9996 8.43467 15.9345 8.54599 15.8293 8.60528Z" fill="#1490DF"/>
<path opacity="0.1" d="M10.36 11.6814L10.277 11.7279C10.253 11.7432 10.2281 11.7572 10.2026 11.7699C10.1112 11.8148 10.0118 11.8411 9.91016 11.8473L12.0195 14.3418L15.6992 15.2285C15.8 15.1524 15.8802 15.0522 15.9325 14.9372L10.36 11.6814Z" fill="black"/>
<path opacity="0.05" d="M10.7358 11.47L10.277 11.7279C10.253 11.7432 10.2281 11.7572 10.2026 11.7699C10.1112 11.8148 10.0118 11.8411 9.91016 11.8473L10.8984 14.5722L15.7003 15.2274C15.8895 15.0854 16.0008 14.8627 16.0009 14.6261V14.5446L10.7358 11.47Z" fill="black"/>
<path d="M4.49837 15.3837H15.2314C15.3965 15.3845 15.5576 15.3324 15.6909 15.2349L9.59976 11.6669C9.57416 11.654 9.54931 11.6397 9.52534 11.6241L3.90674 8.41737H3.90414L3.7207 8.31393V14.6045C3.72028 15.0344 4.06846 15.3833 4.49837 15.3837C4.49837 15.3837 4.49837 15.3837 4.49837 15.3837Z" fill="#28A8EA"/>
<path opacity="0.1" d="M8.93 4.15879V12.0955C8.92933 12.3738 8.76013 12.6239 8.50209 12.7281C8.42216 12.7624 8.33607 12.7802 8.24907 12.7802H3.7207V3.84884H4.46489V3.47675H8.24907C8.62497 3.47817 8.92919 3.78288 8.93 4.15879Z" fill="black"/>
<path opacity="0.2" d="M8.55792 4.53087V12.4676C8.55886 12.5575 8.5398 12.6464 8.5021 12.7281C8.39877 12.9828 8.15186 13.1499 7.87699 13.1511H3.7207V3.84883H7.87699C7.98495 3.84775 8.09135 3.87468 8.18582 3.92698C8.41392 4.04189 8.55783 4.27547 8.55792 4.53087Z" fill="black"/>
<path opacity="0.2" d="M8.55791 4.53088V11.7234C8.55609 12.0992 8.25271 12.4037 7.87699 12.407H3.7207V3.84883H7.87698C7.98494 3.84775 8.09135 3.87468 8.18581 3.92698C8.41391 4.04189 8.55782 4.27547 8.55791 4.53088Z" fill="black"/>
<path opacity="0.2" d="M8.18582 4.53087V11.7234C8.18542 12.0997 7.88121 12.4051 7.5049 12.4069H3.7207V3.84883H7.50489C7.88116 3.84903 8.18602 4.15423 8.18581 4.53051C8.18582 4.53063 8.18582 4.53075 8.18582 4.53087Z" fill="black"/>
<path d="M0.682044 3.84883H7.504C7.88068 3.84883 8.18604 4.1542 8.18604 4.53087V11.3528C8.18604 11.7295 7.88068 12.0349 7.504 12.0349H0.682044C0.305358 12.0349 0 11.7295 0 11.3528V4.53087C0 4.1542 0.305367 3.84883 0.682044 3.84883Z" fill="url(#paint1_linear_14033_1489)"/>
<path d="M2.13219 6.70948C2.30029 6.35133 2.57162 6.05161 2.91135 5.84883C3.28758 5.63343 3.71595 5.52605 4.14931 5.5385C4.55095 5.52979 4.94727 5.6316 5.29498 5.83282C5.6219 6.02779 5.8852 6.31345 6.05293 6.65515C6.23559 7.03167 6.32662 7.44604 6.31861 7.86445C6.32746 8.30173 6.2338 8.735 6.04512 9.12957C5.8734 9.48348 5.60174 9.77932 5.26372 9.98054C4.90261 10.1879 4.49157 10.2924 4.07526 10.2827C3.66504 10.2926 3.25998 10.1896 2.90428 9.98501C2.57453 9.78979 2.30793 9.50381 2.13629 9.16119C1.95254 8.79011 1.86043 8.38041 1.86764 7.9664C1.85998 7.53285 1.95042 7.10317 2.13219 6.70948ZM2.9627 8.72994C3.05232 8.95636 3.20431 9.15273 3.40102 9.29627C3.60138 9.43631 3.8413 9.50855 4.08567 9.50241C4.34591 9.5127 4.60243 9.43799 4.81646 9.28957C5.01068 9.14648 5.15867 8.94958 5.24213 8.72324C5.33543 8.47047 5.38147 8.2027 5.37794 7.93329C5.38083 7.6613 5.33755 7.3908 5.24994 7.13329C5.17257 6.9008 5.02934 6.69579 4.83767 6.54315C4.629 6.3877 4.37317 6.30886 4.1132 6.3199C3.86354 6.31343 3.61825 6.38624 3.41255 6.5279C3.21252 6.67204 3.05764 6.87015 2.96604 7.09906C2.76284 7.62376 2.76178 8.20524 2.96306 8.73069L2.9627 8.72994Z" fill="white"/>
<path d="M11.9062 2.73255H15.2551V6.08138H11.9062V2.73255Z" fill="#50D9FF"/>
<defs>
<linearGradient id="paint0_linear_14033_1489" x1="9.86023" y1="8.31394" x2="9.86023" y2="15.3837" gradientUnits="userSpaceOnUse">
<stop stop-color="#35B8F1"/>
<stop offset="1" stop-color="#28A8EA"/>
</linearGradient>
<linearGradient id="paint1_linear_14033_1489" x1="1.42208" y1="3.3159" x2="6.76395" y2="12.5678" gradientUnits="userSpaceOnUse">
<stop stop-color="#1784D9"/>
<stop offset="0.5" stop-color="#107AD5"/>
<stop offset="1" stop-color="#0A63C9"/>
</linearGradient>
</defs>
</svg>
